HIERARCHY
ROOT Hips
{
  OFFSET 54.4758 91.562 37.1021
  CHANNELS 6 Xposition Yposition Zposition Zrotation Xrotation Yrotation
  JOINT spine
  {
    OFFSET 0 6.84637 0.3937
    CHANNELS 3 Zrotation Xrotation Yrotation
    JOINT spine1
    {
      OFFSET 0 9.49621 0
      CHANNELS 3 Zrotation Xrotation Yrotation
      JOINT spine2
      {
        OFFSET 0 9.09909 0
        CHANNELS 3 Zrotation Xrotation Yrotation
        JOINT Neck
        {
          OFFSET 0 23.3612 1.11378
          CHANNELS 3 Zrotation Xrotation Yrotation
          JOINT Head
          {
            OFFSET 0 7.05802 0
            CHANNELS 3 Zrotation Xrotation Yrotation
            End Site
            {
              OFFSET 0 17.0844 -5.63419
            }
          }
        }
        JOINT RightShoulder
        {
          OFFSET -3.83136 9.82631 -0.533491
          CHANNELS 3 Zrotation Xrotation Yrotation
          JOINT RightArm
          {
            OFFSET 0 12.8881 0
            CHANNELS 3 Zrotation Xrotation Yrotation
            JOINT RightArmRoll
            {
              OFFSET 0 6.50617 0
              CHANNELS 3 Zrotation Xrotation Yrotation
              JOINT RightForeArm
              {
                OFFSET 0 18.9501 0
                CHANNELS 3 Zrotation Xrotation Yrotation
                JOINT RightForeArmRoll
                {
                  OFFSET 0 7.30092 0
                  CHANNELS 3 Zrotation Xrotation Yrotation
                  JOINT RightHand
                  {
                    OFFSET 0 14.6514 0
                    CHANNELS 3 Zrotation Xrotation Yrotation
                    End Site
                    {
                      OFFSET 0 0 0
                    }
                  }
                }
              }
            }
          }
        }
        JOINT LeftShoulder
        {
          OFFSET 3.83136 9.82631 -0.533491
          CHANNELS 3 Zrotation Xrotation Yrotation
          JOINT LeftArm
          {
            OFFSET 0 12.8881 0
            CHANNELS 3 Zrotation Xrotation Yrotation
            JOINT LeftArmRoll
            {
              OFFSET 0 6.50616 0
              CHANNELS 3 Zrotation Xrotation Yrotation
              JOINT LeftForeArm
              {
                OFFSET 0 18.9501 0
                CHANNELS 3 Zrotation Xrotation Yrotation
                JOINT LeftForeArmRoll
                {
                  OFFSET 0 7.30092 0
                  CHANNELS 3 Zrotation Xrotation Yrotation
                  JOINT LeftHand
                  {
                    OFFSET 0 14.6514 0
                    CHANNELS 3 Zrotation Xrotation Yrotation
                    End Site
                    {
                      OFFSET 0 0 0
                    }
                  }
                }
              }
            }
          }
        }
      }
    }
  }
  JOINT RightUpLeg
  {
    OFFSET -6.06837 -1.11278 -0.933477
    CHANNELS 3 Zrotation Xrotation Yrotation
    JOINT RightUpLegRoll
    {
      OFFSET 0 17.1796 0
      CHANNELS 3 Zrotation Xrotation Yrotation
      JOINT RightLeg
      {
        OFFSET 0 -21.2743 0
        CHANNELS 3 Zrotation Xrotation Yrotation
        JOINT RightLegRoll
        {
          OFFSET 0 21.3439 0
          CHANNELS 3 Zrotation Xrotation Yrotation
          JOINT RightFoot
          {
            OFFSET 0 17.7652 0
            CHANNELS 3 Zrotation Xrotation Yrotation
            JOINT RightToeBase
            {
              OFFSET 0 14.8508 0
              CHANNELS 3 Zrotation Xrotation Yrotation
              End Site
              {
                OFFSET 0.0062947 7.19213 -0.829005
              }
            }
          }
        }
      }
    }
  }
  JOINT LeftUpLeg
  {
    OFFSET 6.06837 -1.11278 -0.933477
    CHANNELS 3 Zrotation Xrotation Yrotation
    JOINT LeftUpLegRoll
    {
      OFFSET 0 17.1797 0
      CHANNELS 3 Zrotation Xrotation Yrotation
      JOINT LeftLeg
      {
        OFFSET 0 21.2742 0
        CHANNELS 3 Zrotation Xrotation Yrotation
        JOINT LeftLegRoll
        {
          OFFSET 0 21.5412 0
          CHANNELS 3 Zrotation Xrotation Yrotation
          JOINT LeftFoot
          {
            OFFSET 0 17.5679 0
            CHANNELS 3 Zrotation Xrotation Yrotation
            JOINT LeftToeBase
            {
              OFFSET 0 14.8508 0
              CHANNELS 3 Zrotation Xrotation Yrotation
              End Site
              {
                OFFSET -0.0282102 7.19213 -0.829005
              }
            }
          }
        }
      }
    }
  }
}
MOTION
Frames: 4
Frame Time: 0.00208333
52.7528 77.2138 10.5382 -1.54392 31.0762 -3.33062 0.276607 0.853451 0.251672 0.557659 5.71079 0.46317 0.553174 7.35581 0.454369 -0.1848 -18.9153 -0.288902 2.11573 6.11821 -0.201126 58.8472 3.88026 2.41689 108.9 35.5646 -35.1609 2.16427e-006 6.7682e-007 -6.25189e-006 30.2875 28.4036 -6.60193 -7.96504e-006 1.62816e-006 -2.99999 8.02891 -4.95085 0.697371 -50.0845 -4.04717 1.7758 -130.189 45.9255 21.7487 -3.71702e-006 -3.96598e-006 2.33218e-006 -24.4563 0.169756 2.57037 1.7741e-005 5.63921e-006 3.22817 -8.02924 -4.95119 -0.697549 -167.177 79.5937 -14.2187 -180 4.57743e-005 179.461 176.38 48.408 179.903 4.69954e-006 -1.78206e-007 0.848122 -18.1218 66.8821 18.6452 8.13649 25.2327 -3.48774 -120.645 72.2915 -57.4151 4.5067e-006 -1.99009e-005 -0.3823 -9.34968 -53.6904 -2.79422 1.02248e-006 -1.9416e-007 -0.777627 19.7213 68.8431 -20.2708 -8.13649 25.2327 3.48773 
52.7692 77.3131 10.6536 -1.54966 30.9666 -3.30162 0.27852 0.847555 0.24897 0.561672 5.69899 0.457033 0.557268 7.34401 0.448154 -0.141415 -18.9338 -0.280179 2.08755 6.15883 -0.193367 58.9628 3.9002 2.40939 108.925 35.6272 -34.8678 2.16427e-006 6.7682e-007 -6.25189e-006 30.2603 28.0323 -6.50374 -7.96504e-006 1.62816e-006 -2.99999 8.02891 -4.95085 0.697371 -50.1736 -4.01136 1.75668 -130.212 45.9497 21.372 -3.71702e-006 -3.96598e-006 2.33218e-006 -24.1104 0.17593 2.66175 1.7741e-005 5.63921e-006 3.23433 -8.02924 -4.95119 -0.697549 -167.659 79.2921 -13.7439 -180 4.57743e-005 179.46 176.383 48.2478 179.902 4.69954e-006 -1.78206e-007 0.843589 -18.113 66.8766 18.6414 8.13649 25.2327 -3.48774 -121.567 72.1464 -56.4724 4.5067e-006 -1.99009e-005 -0.384876 -9.33115 -53.527 -2.77905 1.02248e-006 -1.9416e-007 -0.773681 19.7178 68.8429 -20.2709 -8.13649 25.2327 3.48773 
52.7601 77.4179 10.775 -1.55572 30.8546 -3.27248 0.280393 0.841982 0.24614 0.565436 5.68784 0.450473 0.56111 7.33285 0.441522 -0.108281 -18.9662 -0.268743 2.07123 6.22087 -0.182955 59.0799 3.91986 2.40141 108.948 35.6903 -34.5778 2.16427e-006 6.7682e-007 -6.25189e-006 30.2208 27.6546 -6.39978 -7.96504e-006 1.62816e-006 -2.99999 8.02891 -4.95085 0.697371 -50.2573 -3.97978 1.7403 -130.242 45.9713 21.0039 -3.71702e-006 -3.96598e-006 2.33218e-006 -23.7665 0.173553 2.7384 1.7741e-005 5.63921e-006 3.23987 -8.02924 -4.95119 -0.697549 -168.101 78.9863 -13.3113 -180 4.57743e-005 179.459 176.391 48.0904 179.899 4.69954e-006 -1.78206e-007 0.839153 -18.1058 66.8733 18.639 8.13649 25.2327 -3.48774 -122.48 71.9948 -55.537 4.5067e-006 -1.99009e-005 -0.387479 -9.31204 -53.3641 -2.76383 1.02248e-006 -1.9416e-007 -0.769695 19.715 68.8437 -20.2717 -8.13649 25.2327 3.48773 
52.7599 77.4738 10.944 -1.56234 30.7401 -3.24256 0.282263 0.836637 0.243103 0.569033 5.67714 0.443289 0.56478 7.32215 0.43427 -0.0842837 -19.0128 -0.254777 2.06663 6.30443 -0.170076 59.199 3.93957 2.39306 108.969 35.7555 -34.2902 2.16427e-006 6.7682e-007 -6.25189e-006 30.1704 27.2673 -6.28913 -7.96504e-006 1.62816e-006 -2.99999 8.02891 -4.95085 0.697371 -50.3364 -3.9521 1.72648 -130.279 45.9916 20.6443 -3.71702e-006 -3.96598e-006 2.33218e-006 -23.4226 0.171167 2.80517 1.7741e-005 5.63921e-006 3.24495 -8.02924 -4.95119 -0.697549 -168.512 78.6764 -12.912 -180 4.57743e-005 179.458 176.403 47.9356 179.895 4.69954e-006 -1.78206e-007 0.834795 -18.1002 66.8718 18.6381 8.13649 25.2327 -3.48774 -123.385 71.8372 -54.6088 4.5067e-006 -1.99009e-005 -0.390115 -9.29224 -53.2019 -2.74851 1.02248e-006 -1.9416e-007 -0.76568 19.7128 68.8451 -20.2731 -8.13649 25.2327 3.48773 
